<?xml version="1.0" encoding="UTF-8"?>
<svg width="800px" height="600px" viewBox="0 0 800 600" version="1.1" xmlns="http://www.w3.org/2000/svg">
    <g stroke="none" stroke-width="1" fill="none" fill-rule="evenodd">
        <rect fill="#F5F5F5" x="0" y="0" width="800" height="600"/>
        <g transform="translate(100, 100)">
            <!-- Graph Background -->
            <rect fill="#FFFFFF" x="0" y="0" width="600" height="400" rx="8"/>
            
            <!-- Graph Lines -->
            <polyline stroke="#2196F3" stroke-width="3" points="50,300 150,200 250,250 350,150 450,100 550,50"/>
            <polyline stroke="#4CAF50" stroke-width="3" points="50,350 150,300 250,280 350,200 450,180 550,150"/>
            
            <!-- Data Points -->
            <circle fill="#2196F3" cx="50" cy="300" r="6"/>
            <circle fill="#2196F3" cx="150" cy="200" r="6"/>
            <circle fill="#2196F3" cx="250" cy="250" r="6"/>
            <circle fill="#2196F3" cx="350" cy="150" r="6"/>
            <circle fill="#2196F3" cx="450" cy="100" r="6"/>
            <circle fill="#2196F3" cx="550" cy="50" r="6"/>
            
            <circle fill="#4CAF50" cx="50" cy="350" r="6"/>
            <circle fill="#4CAF50" cx="150" cy="300" r="6"/>
            <circle fill="#4CAF50" cx="250" cy="280" r="6"/>
            <circle fill="#4CAF50" cx="350" cy="200" r="6"/>
            <circle fill="#4CAF50" cx="450" cy="180" r="6"/>
            <circle fill="#4CAF50" cx="550" cy="150" r="6"/>
            
            <!-- Grid Lines -->
            <line x1="50" y1="0" x2="50" y2="400" stroke="#E0E0E0" stroke-width="1"/>
            <line x1="150" y1="0" x2="150" y2="400" stroke="#E0E0E0" stroke-width="1"/>
            <line x1="250" y1="0" x2="250" y2="400" stroke="#E0E0E0" stroke-width="1"/>
            <line x1="350" y1="0" x2="350" y2="400" stroke="#E0E0E0" stroke-width="1"/>
            <line x1="450" y1="0" x2="450" y2="400" stroke="#E0E0E0" stroke-width="1"/>
            <line x1="550" y1="0" x2="550" y2="400" stroke="#E0E0E0" stroke-width="1"/>
            
            <line x1="0" y1="50" x2="600" y2="50" stroke="#E0E0E0" stroke-width="1"/>
            <line x1="0" y1="150" x2="600" y2="150" stroke="#E0E0E0" stroke-width="1"/>
            <line x1="0" y1="250" x2="600" y2="250" stroke="#E0E0E0" stroke-width="1"/>
            <line x1="0" y1="350" x2="600" y2="350" stroke="#E0E0E0" stroke-width="1"/>
        </g>
    </g>
</svg>